<?xml version="1.0" encoding="utf-8"?>
<!-- Generator: Adobe Illustrator 24.2.1, SVG Export Plug-In . SVG Version: 6.00 Build 0)  -->
<svg version="1.1" id="Ebene_1" xmlns="http://www.w3.org/2000/svg" xmlns:xlink="http://www.w3.org/1999/xlink" x="0px" y="0px"
	 viewBox="0 0 176.974 63" style="enable-background:new 0 0 176.974 63;" xml:space="preserve">
<style type="text/css">
	.st0{fill:#FFFFFF;}
	.st1{fill:#FFCC00;}
	.st2{fill-rule:evenodd;clip-rule:evenodd;fill:#FFCC00;}
</style>
<polygon class="st0" points="97.111,54.361 97.111,7.324 116.042,7.324 116.042,15.475 106.411,15.475 106.411,25.984 
	116.042,25.984 116.042,34.149 106.411,34.149 106.411,46.257 116.042,46.257 116.042,54.361 97.111,54.361 "/>
<polygon class="st1" points="97.843,53.628 115.309,53.628 115.309,46.989 105.678,46.989 105.678,33.417 115.309,33.417 
	115.309,26.716 105.678,26.716 105.678,14.743 115.309,14.743 115.309,8.056 97.843,8.056 97.843,53.628 "/>
<path class="st0" d="M91.678,16.151v2.636l-8.202,0.016v-0.367c0-2.575-1.671-3.254-3.852-3.254c-2.832,0-3.934,1.818-3.934,5.662
	v21.363c0,3.528,1.711,4.443,4.367,4.443c1.213,0,2.106-0.315,3.23-0.64V34.823h-2.729v-8.295h11.116v26.203
	c-3.268,1.524-8.175,2.106-11.685,2.106c-8.903,0-13.001-4.512-13.001-12.013V19.177c0-9.015,4.116-12.426,13.138-12.426
	C87.623,6.751,91.678,11.079,91.678,16.151L91.678,16.151z"/>
<path class="st1" d="M90.946,16.151c0-4.582-3.637-8.668-10.82-8.668c-8.677,0-12.406,3.141-12.406,11.694v23.648
	c0,7.074,3.747,11.281,12.269,11.281c3.783,0,8.31-0.685,10.953-1.843V27.261H81.29v6.83h2.729v12.496
	c-1.5,0.328-2.283,0.794-3.962,0.794c-2.969,0-5.1-1.156-5.1-5.175V20.843c0-3.951,1.187-6.394,4.666-6.394
	c2.237,0,4.406,0.731,4.574,3.62l6.748-0.013V16.151L90.946,16.151z"/>
<path class="st0" d="M165.031,15.424h-4.11v10.651h4.238c1.258,0,2.192-1.015,2.192-2.32V17.68
	C167.351,16.41,166.324,15.424,165.031,15.424L165.031,15.424z M167.479,36.929c0-1.3-1.44-2.831-2.703-2.831l-3.854,0v12.698h3.215
	c1.882,0,3.343-1.275,3.343-3.088V36.929L167.479,36.929z M151.619,7.273h15.97c4.92,0,8.936,3.73,8.936,8.68v6.779
	c0,3.746-1.865,6.398-5.285,7.471c2.294,0.695,5.822,2.744,5.732,8.778l0,6.773c0,4.947-4.207,8.878-9.331,8.552h-16.022V7.273
	L151.619,7.273z"/>
<path class="st2" d="M168.211,36.929v6.779c0,2.284-1.86,3.82-4.075,3.82h-3.947V33.365h4.587
	C166.479,33.365,168.211,35.262,168.211,36.929L168.211,36.929z M165.031,14.692c1.674,0,3.052,1.291,3.052,2.988v6.075
	c0,1.662-1.215,3.052-2.924,3.052h-4.971V14.692H165.031L165.031,14.692z M172.087,29.095c-0.881,0.542-1.844,0.9-2.786,1.038
	l0,0.043c0.949,0.156,1.935,0.558,2.848,1.147c2.823,1.326,4.142,4.129,4.09,7.65l0,6.782c0,4.515-3.856,8.126-8.575,7.82l-15.313,0
	V8.006h15.238c4.545,0,8.203,3.431,8.203,7.948v6.779C175.792,25.788,174.451,27.974,172.087,29.095L172.087,29.095z"/>
<path class="st0" d="M137.373,17.694c0-1.27-1.027-2.256-2.32-2.256h-4.11v10.651l4.238,0c1.239,0,2.164-0.987,2.192-2.264
	L137.373,17.694L137.373,17.694z M146.291,37.581v16.74h-9.174V36.432c0-1.24-1.251-2.32-2.576-2.32h-3.854V54.32h-9.302V7.287
	h15.97c4.92,0,8.936,3.73,8.936,8.68v6.779c0,3.232-1.602,6.208-5.127,7.379C144.69,31.16,146.256,34.178,146.291,37.581
	L146.291,37.581z"/>
<path class="st1" d="M138.105,17.694c0-1.697-1.378-2.988-3.052-2.988h-4.843v12.116h4.971c1.683,0,2.888-1.356,2.924-2.984
	L138.105,17.694L138.105,17.694z M139.354,30.171c0.895,0.168,1.785,0.517,2.597,1.033c2.467,1.16,3.579,3.587,3.607,6.383v16.002
	h-7.709V36.432c0-1.727-1.666-3.052-3.308-3.052h-4.587v20.209h-7.837V8.02h15.238c4.545,0,8.203,3.431,8.203,7.948v6.779
	c0,2.341-0.899,4.506-2.868,5.831c-0.947,0.769-2.089,1.304-3.337,1.535L139.354,30.171L139.354,30.171z"/>
<polygon class="st0" points="25.855,26.62 25.855,40.271 36.344,40.271 36.344,26.62 39.149,26.62 39.149,42.691 23.049,42.691 
	23.049,26.62 25.855,26.62 "/>
<polygon class="st0" points="37.418,22.867 37.418,24.221 35.484,24.221 35.484,39.474 26.825,39.474 26.825,24.221 24.891,24.221 
	24.891,22.867 21.479,22.867 21.479,18.006 40.666,18.006 40.666,22.867 37.418,22.867 "/>
<path class="st0" d="M54.624,52.95l-4.053-3.401l2.018-2.404l4.053,3.401L54.624,52.95z M51.27,49.488l3.292,2.762l1.378-1.643
	l-3.292-2.762L51.27,49.488z"/>
<path class="st0" d="M50.547,56.639l-3.401-4.053l2.404-2.018l3.401,4.053L50.547,56.639z M47.846,52.648l2.762,3.291l1.643-1.378
	l-2.762-3.292L47.846,52.648z"/>
<path class="st0" d="M45.892,59.565l-2.645-4.582l2.718-1.57l2.645,4.582L45.892,59.565z M43.925,55.165l2.148,3.721l1.857-1.072
	l-2.148-3.721L43.925,55.165z"/>
<path class="st0" d="M40.8,61.637l-1.81-4.972l2.949-1.073l1.81,4.972L40.8,61.637z M39.627,56.962L41.097,61l2.015-0.733
	l-1.47-4.038L39.627,56.962z"/>
<path class="st0" d="M35.425,62.794l-0.919-5.211l3.091-0.545l0.919,5.21L35.425,62.794z M35.082,57.987l0.746,4.232l2.112-0.373
	l-0.746-4.231L35.082,57.987z"/>
<path class="st0" d="M33.069,63h-3.139v-5.291h3.139V63z M30.428,62.503h2.145v-4.297h-2.145V62.503z"/>
<path class="st0" d="M27.575,62.794l-3.091-0.545l0.919-5.21l3.091,0.545L27.575,62.794z M25.06,61.846l2.112,0.373l0.746-4.231
	l-2.112-0.372L25.06,61.846z"/>
<path class="st0" d="M22.201,61.637l-2.949-1.074l1.81-4.972l2.949,1.073L22.201,61.637z M19.889,60.266L21.904,61l1.469-4.038
	l-2.015-0.733L19.889,60.266z"/>
<path class="st0" d="M17.109,59.564l-2.718-1.569l2.645-4.582l2.718,1.569L17.109,59.564z M15.07,57.813l1.857,1.072l2.148-3.721
	l-1.857-1.072L15.07,57.813z"/>
<path class="st0" d="M12.454,56.638l-2.404-2.017l3.401-4.053l2.404,2.017L12.454,56.638z M10.75,54.56l1.643,1.379l2.762-3.291
	l-1.643-1.379L10.75,54.56z"/>
<path class="st0" d="M8.378,52.949l-2.017-2.404l4.053-3.401l2.018,2.404L8.378,52.949z M7.061,50.606l1.379,1.643l3.292-2.762
	l-1.379-1.643L7.061,50.606z"/>
<path class="st0" d="M5.005,48.608L3.435,45.89l4.582-2.645l1.569,2.718L5.005,48.608z M4.114,46.072l1.072,1.857l3.721-2.149
	l-1.072-1.857L4.114,46.072z"/>
<path class="st0" d="M2.436,43.747l-1.073-2.949l4.971-1.81l1.074,2.949L2.436,43.747z M2,41.095l0.733,2.015l4.038-1.469
	l-0.734-2.015L2,41.095z"/>
<path class="st0" d="M0.751,38.514l-0.545-3.091l5.21-0.919l0.545,3.091L0.751,38.514z M0.782,35.827l0.373,2.112l4.231-0.746
	l-0.372-2.112L0.782,35.827z"/>
<path class="st0" d="M5.291,33.068H0V29.93h5.29L5.291,33.068z M0.497,32.571h4.297l0-2.145H0.497V32.571z"/>
<path class="st0" d="M5.416,28.493l-5.21-0.918l0.545-3.091l5.21,0.919L5.416,28.493z M0.782,27.172l4.231,0.746l0.372-2.112
	L1.154,25.06L0.782,27.172z"/>
<path class="st0" d="M6.334,24.01L1.363,22.2l1.073-2.949l4.972,1.809L6.334,24.01z M2,21.903l4.038,1.47l0.734-2.015l-4.038-1.469
	L2,21.903z"/>
<path class="st0" d="M8.017,19.754l-4.582-2.645l1.569-2.718l4.582,2.645L8.017,19.754z M4.114,16.927l3.721,2.148l1.072-1.857
	l-3.721-2.148L4.114,16.927z"/>
<path class="st0" d="M10.413,15.854l-4.053-3.4l2.018-2.404l4.053,3.401L10.413,15.854z M7.061,12.393l3.292,2.762l1.378-1.643
	L8.439,10.75L7.061,12.393z"/>
<path class="st0" d="M13.451,12.431L10.05,8.378l2.404-2.018l3.401,4.053L13.451,12.431z M10.75,8.44l2.762,3.291l1.643-1.379
	l-2.762-3.291L10.75,8.44z"/>
<path class="st0" d="M17.036,9.586L14.39,5.005l2.718-1.569l2.645,4.582L17.036,9.586z M15.069,5.186l2.148,3.721l1.857-1.072
	l-2.148-3.721L15.069,5.186z"/>
<path class="st0" d="M21.061,7.408l-1.81-4.971L22.2,1.363l1.81,4.971L21.061,7.408z M19.888,2.733l1.47,4.037l2.015-0.733L21.903,2
	L19.888,2.733z"/>
<path class="st0" d="M25.402,5.961l-0.919-5.21l3.091-0.545l0.919,5.21L25.402,5.961z M25.059,1.154l0.746,4.231l2.112-0.372
	l-0.746-4.231L25.059,1.154z"/>
<path class="st0" d="M29.929,5.29l0-5.29h3.138l0,5.29L29.929,5.29z M30.426,0.497l0,4.297l2.145,0l0-4.296H30.426z"/>
<path class="st0" d="M37.595,5.961l-3.091-0.545l0.919-5.21l3.091,0.545L37.595,5.961z M35.08,5.013l2.112,0.372l0.746-4.231
	l-2.112-0.372L35.08,5.013z"/>
<path class="st0" d="M41.937,7.407l-2.949-1.073l1.809-4.971l2.949,1.073L41.937,7.407z M39.625,6.037L41.64,6.77l1.469-4.037
	L41.094,2L39.625,6.037z"/>
<path class="st0" d="M45.961,9.586l-2.718-1.569l2.645-4.582l2.718,1.569L45.961,9.586z M43.922,7.835l1.857,1.072l2.148-3.721
	L46.07,4.114L43.922,7.835z"/>
<path class="st0" d="M49.546,12.43l-2.404-2.017l3.4-4.053l2.404,2.017L49.546,12.43z M47.843,10.352l1.642,1.378l2.762-3.291
	L50.604,7.06L47.843,10.352z"/>
<path class="st0" d="M52.584,15.853l-2.017-2.404l4.052-3.401l2.017,2.404L52.584,15.853z M51.266,13.511l1.378,1.643l3.291-2.762
	l-1.378-1.643L51.266,13.511z"/>
<path class="st0" d="M54.98,19.752l-1.569-2.718l4.581-2.645l1.569,2.718L54.98,19.752z M54.089,17.216l1.072,1.857l3.72-2.148
	l-1.072-1.857L54.089,17.216z"/>
<path class="st0" d="M56.662,24.008l-1.074-2.949l4.971-1.81l1.074,2.949L56.662,24.008z M56.226,21.356l0.734,2.015l4.037-1.47
	l-0.734-2.015L56.226,21.356z"/>
<polygon class="st0" points="22.244,26.619 22.244,43.494 40.005,43.494 40.005,26.619 40.682,26.619 40.682,44.171 21.567,44.171 
	21.567,26.619 22.244,26.619 "/>
<path class="st0" d="M43.099,34.226c-0.137-0.376,0.057-0.792,0.433-0.929l4.735-1.724c0.376-0.137,0.792,0.057,0.929,0.433
	c0.138,0.38-0.086,0.803-0.459,0.939l-4.709,1.714C43.652,34.797,43.236,34.602,43.099,34.226L43.099,34.226z"/>
<path class="st0" d="M43.099,36.541c-0.137-0.376,0.057-0.792,0.433-0.929l4.735-1.724c0.376-0.137,0.792,0.057,0.929,0.433
	c0.138,0.38-0.086,0.803-0.459,0.939l-4.709,1.714C43.652,37.111,43.236,36.918,43.099,36.541L43.099,36.541z"/>
<path class="st0" d="M43.099,38.856c-0.137-0.376,0.057-0.792,0.433-0.929l4.735-1.723c0.376-0.137,0.792,0.057,0.929,0.433
	c0.138,0.38-0.086,0.803-0.459,0.938l-4.709,1.714C43.652,39.426,43.236,39.233,43.099,38.856L43.099,38.856z"/>
<path class="st0" d="M49.963,34.226c-0.137-0.376,0.057-0.792,0.433-0.929l4.735-1.724c0.376-0.137,0.792,0.057,0.929,0.433
	c0.138,0.38-0.086,0.803-0.459,0.939l-4.709,1.714C50.515,34.797,50.1,34.602,49.963,34.226L49.963,34.226z"/>
<path class="st0" d="M49.963,36.541c-0.137-0.376,0.057-0.792,0.433-0.929l4.735-1.724c0.376-0.137,0.792,0.057,0.929,0.433
	c0.138,0.38-0.086,0.803-0.459,0.939l-4.709,1.714C50.515,37.111,50.1,36.918,49.963,36.541L49.963,36.541z"/>
<path class="st0" d="M49.963,38.856c-0.137-0.376,0.057-0.792,0.433-0.929l4.735-1.723c0.376-0.137,0.792,0.057,0.929,0.433
	c0.138,0.38-0.086,0.803-0.459,0.938l-4.709,1.714C50.515,39.426,50.1,39.233,49.963,38.856L49.963,38.856z"/>
<path class="st0" d="M56.826,34.226c-0.137-0.376,0.057-0.792,0.433-0.929l4.735-1.724c0.376-0.137,0.792,0.057,0.929,0.433
	c0.138,0.38-0.086,0.803-0.459,0.939l-4.709,1.714C57.379,34.797,56.963,34.602,56.826,34.226L56.826,34.226z"/>
<path class="st0" d="M56.826,36.541c-0.137-0.376,0.057-0.792,0.433-0.929l4.735-1.724c0.376-0.137,0.792,0.057,0.929,0.433
	c0.138,0.38-0.086,0.803-0.459,0.939l-4.709,1.714C57.379,37.111,56.963,36.918,56.826,36.541L56.826,36.541z"/>
<path class="st0" d="M56.826,38.856c-0.137-0.376,0.057-0.792,0.433-0.929l4.735-1.723c0.376-0.137,0.792,0.057,0.929,0.433
	c0.138,0.38-0.086,0.803-0.459,0.938l-4.709,1.714C57.379,39.426,56.963,39.233,56.826,38.856L56.826,38.856z"/>
<polygon class="st0" points="41.619,26.624 64.522,26.624 64.522,30.643 41.619,30.643 41.619,26.624 "/>
<polygon class="st0" points="41.619,40.16 64.522,40.16 64.522,44.179 41.619,44.179 41.619,40.16 "/>
</svg>
